<svg width="522" height="238" viewBox="0 0 522 238" fill="none" xmlns="http://www.w3.org/2000/svg">
<path d="M89.0001 46.0001L46 3L2.99994 46.0001" stroke="#E26E4D" stroke-width="4" stroke-linecap="square"/>
<path d="M174.81 46.0001L131.81 3L88.8102 46.0001" stroke="#E26E4D" stroke-width="4" stroke-linecap="square"/>
<path d="M260.81 46.0001L217.81 3L174.81 46.0001" stroke="#E26E4D" stroke-width="4" stroke-linecap="square"/>
<path d="M346.81 46.0001L303.81 3L260.81 46.0001" stroke="#E26E4D" stroke-width="4" stroke-linecap="square"/>
<path d="M432.62 46.0001L389.62 3L346.62 46.0001" stroke="#E26E4D" stroke-width="4" stroke-linecap="square"/>
<path d="M518.62 46.0001L475.62 3L432.62 46.0001" stroke="#E26E4D" stroke-width="4" stroke-linecap="square"/>
<path d="M89.0001 132L46 89L2.99994 132" stroke="#E26E4D" stroke-width="4" stroke-linecap="square"/>
<path d="M174.81 132L131.81 89L88.8102 132" stroke="#E26E4D" stroke-width="4" stroke-linecap="square"/>
<path d="M260.81 132L217.81 89L174.81 132" stroke="#E26E4D" stroke-width="4" stroke-linecap="square"/>
<path d="M346.81 132L303.81 89L260.81 132" stroke="#E26E4D" stroke-width="4" stroke-linecap="square"/>
<path d="M432.62 132L389.62 89L346.62 132" stroke="#E26E4D" stroke-width="4" stroke-linecap="square"/>
<path d="M518.62 132L475.62 89L432.62 132" stroke="#E26E4D" stroke-width="4" stroke-linecap="square"/>
<path d="M89.0001 89.0001L46 46L2.99994 89.0001" stroke="#E26E4D" stroke-width="4" stroke-linecap="square"/>
<path d="M174.81 89.0001L131.81 46L88.8102 89.0001" stroke="#E26E4D" stroke-width="4" stroke-linecap="square"/>
<path d="M260.81 89.0001L217.81 46L174.81 89.0001" stroke="#E26E4D" stroke-width="4" stroke-linecap="square"/>
<path d="M346.81 89.0001L303.81 46L260.81 89.0001" stroke="#E26E4D" stroke-width="4" stroke-linecap="square"/>
<path d="M432.62 89.0001L389.62 46L346.62 89.0001" stroke="#E26E4D" stroke-width="4" stroke-linecap="square"/>
<path d="M518.62 89.0001L475.62 46L432.62 89.0001" stroke="#E26E4D" stroke-width="4" stroke-linecap="square"/>
<path d="M89.0001 175L46 132L2.99994 175" stroke="#E26E4D" stroke-width="4" stroke-linecap="square"/>
<path d="M174.81 175L131.81 132L88.8102 175" stroke="#E26E4D" stroke-width="4" stroke-linecap="square"/>
<path d="M260.81 175L217.81 132L174.81 175" stroke="#E26E4D" stroke-width="4" stroke-linecap="square"/>
<path d="M346.81 175L303.81 132L260.81 175" stroke="#E26E4D" stroke-width="4" stroke-linecap="square"/>
<path d="M432.62 175L389.62 132L346.62 175" stroke="#E26E4D" stroke-width="4" stroke-linecap="square"/>
<path d="M518.62 175L475.62 132L432.62 175" stroke="#E26E4D" stroke-width="4" stroke-linecap="square"/>
<path d="M89.0001 66.0001L46 23L2.99994 66.0001" stroke="#E26E4D" stroke-width="4" stroke-linecap="square"/>
<path d="M174.81 66.0001L131.81 23L88.8102 66.0001" stroke="#E26E4D" stroke-width="4" stroke-linecap="square"/>
<path d="M260.81 66.0001L217.81 23L174.81 66.0001" stroke="#E26E4D" stroke-width="4" stroke-linecap="square"/>
<path d="M346.81 66.0001L303.81 23L260.81 66.0001" stroke="#E26E4D" stroke-width="4" stroke-linecap="square"/>
<path d="M432.62 66.0001L389.62 23L346.62 66.0001" stroke="#E26E4D" stroke-width="4" stroke-linecap="square"/>
<path d="M518.62 66.0001L475.62 23L432.62 66.0001" stroke="#E26E4D" stroke-width="4" stroke-linecap="square"/>
<path d="M89.0001 152L46 109L2.99994 152" stroke="#E26E4D" stroke-width="4" stroke-linecap="square"/>
<path d="M174.81 152L131.81 109L88.8102 152" stroke="#E26E4D" stroke-width="4" stroke-linecap="square"/>
<path d="M260.81 152L217.81 109L174.81 152" stroke="#E26E4D" stroke-width="4" stroke-linecap="square"/>
<path d="M346.81 152L303.81 109L260.81 152" stroke="#E26E4D" stroke-width="4" stroke-linecap="square"/>
<path d="M432.62 152L389.62 109L346.62 152" stroke="#E26E4D" stroke-width="4" stroke-linecap="square"/>
<path d="M518.62 152L475.62 109L432.62 152" stroke="#E26E4D" stroke-width="4" stroke-linecap="square"/>
<path d="M89.0001 109L46 66L2.99994 109" stroke="#E26E4D" stroke-width="4" stroke-linecap="square"/>
<path d="M174.81 109L131.81 66L88.8102 109" stroke="#E26E4D" stroke-width="4" stroke-linecap="square"/>
<path d="M260.81 109L217.81 66L174.81 109" stroke="#E26E4D" stroke-width="4" stroke-linecap="square"/>
<path d="M346.81 109L303.81 66L260.81 109" stroke="#E26E4D" stroke-width="4" stroke-linecap="square"/>
<path d="M432.62 109L389.62 66L346.62 109" stroke="#E26E4D" stroke-width="4" stroke-linecap="square"/>
<path d="M518.62 109L475.62 66L432.62 109" stroke="#E26E4D" stroke-width="4" stroke-linecap="square"/>
<path d="M89.0001 195L46 152L2.99994 195" stroke="#E26E4D" stroke-width="4" stroke-linecap="square"/>
<path d="M174.81 195L131.81 152L88.8102 195" stroke="#E26E4D" stroke-width="4" stroke-linecap="square"/>
<path d="M260.81 195L217.81 152L174.81 195" stroke="#E26E4D" stroke-width="4" stroke-linecap="square"/>
<path d="M346.81 195L303.81 152L260.81 195" stroke="#E26E4D" stroke-width="4" stroke-linecap="square"/>
<path d="M432.62 195L389.62 152L346.62 195" stroke="#E26E4D" stroke-width="4" stroke-linecap="square"/>
<path d="M518.62 195L475.62 152L432.62 195" stroke="#E26E4D" stroke-width="4" stroke-linecap="square"/>
</svg>
