<?xml version="1.0" encoding="UTF-8"?>
<svg id="_레이어_2" data-name="레이어 2" xmlns="http://www.w3.org/2000/svg" viewBox="0 0 518.45 188.66">
  <defs>
    <style>
      .cls-1 {
        fill: none;
        stroke: #e26e4d;
        stroke-miterlimit: 10;
        stroke-width: 4px;
      }
    </style>
  </defs>
  <g id="_레이어_1-2" data-name="레이어 1">
    <g>
      <polyline class="cls-1" points="1.41 45.83 44.41 2.83 87.32 45.73 130.22 2.83 173.22 45.83 216.22 2.83 259.22 45.83 302.22 2.83 345.13 45.73 388.03 2.83 431.03 45.83 474.03 2.83 517.03 45.83"/>
      <polyline class="cls-1" points="1.41 65.83 44.41 22.83 87.32 65.73 130.22 22.83 173.22 65.83 216.22 22.83 259.22 65.83 302.22 22.83 345.13 65.73 388.03 22.83 431.03 65.83 474.03 22.83 517.03 65.83"/>
      <polyline class="cls-1" points="1.41 85.83 44.41 42.83 87.32 85.73 130.22 42.83 173.22 85.83 216.22 42.83 259.22 85.83 302.22 42.83 345.13 85.73 388.03 42.83 431.03 85.83 474.03 42.83 517.03 85.83"/>
      <polyline class="cls-1" points="1.41 105.83 44.41 62.83 87.32 105.73 130.22 62.83 173.22 105.83 216.22 62.83 259.22 105.83 302.22 62.83 345.13 105.73 388.03 62.83 431.03 105.83 474.03 62.83 517.03 105.83"/>
      <polyline class="cls-1" points="1.41 125.83 44.41 82.83 87.32 125.73 130.22 82.83 173.22 125.83 216.22 82.83 259.22 125.83 302.22 82.83 345.13 125.73 388.03 82.83 431.03 125.83 474.03 82.83 517.03 125.83"/>
      <polyline class="cls-1" points="1.41 145.83 44.41 102.83 87.32 145.73 130.22 102.83 173.22 145.83 216.22 102.83 259.22 145.83 302.22 102.83 345.13 145.73 388.03 102.83 431.03 145.83 474.03 102.83 517.03 145.83"/>
      <polyline class="cls-1" points="1.41 165.83 44.41 122.83 87.32 165.73 130.22 122.83 173.22 165.83 216.22 122.83 259.22 165.83 302.22 122.83 345.13 165.73 388.03 122.83 431.03 165.83 474.03 122.83 517.03 165.83"/>
      <polyline class="cls-1" points="1.41 185.83 44.41 142.83 87.32 185.73 130.22 142.83 173.22 185.83 216.22 142.83 259.22 185.83 302.22 142.83 345.13 185.73 388.03 142.83 431.03 185.83 474.03 142.83 517.03 185.83"/>
    </g>
  </g>
</svg>