<?xml version="1.0" encoding="UTF-8"?>
<svg id="zigzag" data-name="zigzag" xmlns="http://www.w3.org/2000/svg" viewBox="0 0 807.74 214.14">
  <defs>
    <style>
      .cls-1 {
        fill: none;
        stroke: #e26e4d;
        stroke-miterlimit: 10;
        stroke-width: 5px;
      }
    </style>
  </defs>
  <polyline class="cls-1" points="1.77 70.6 68.84 3.54 135.9 70.6 202.97 3.54 270.04 70.6 337.1 3.54 404.17 70.6 471.24 3.54 538.31 70.6 605.37 3.54 672.44 70.6 739.51 3.54 805.98 70.01"/>
  <polyline class="cls-1" points="1.77 90.6 68.84 23.54 135.9 90.6 202.97 23.54 270.04 90.6 337.1 23.54 404.17 90.6 471.24 23.54 538.31 90.6 605.37 23.54 672.44 90.6 739.51 23.54 805.98 90.01"/>
  <polyline class="cls-1" points="1.77 110.6 68.84 43.54 135.9 110.6 202.97 43.54 270.04 110.6 337.1 43.54 404.17 110.6 471.24 43.54 538.31 110.6 605.37 43.54 672.44 110.6 739.51 43.54 805.98 110.01"/>
  <polyline class="cls-1" points="1.77 130.6 68.84 63.54 135.9 130.6 202.97 63.54 270.04 130.6 337.1 63.54 404.17 130.6 471.24 63.54 538.31 130.6 605.37 63.54 672.44 130.6 739.51 63.54 805.98 130.01"/>
  <polyline class="cls-1" points="1.77 150.6 68.84 83.54 135.9 150.6 202.97 83.54 270.04 150.6 337.1 83.54 404.17 150.6 471.24 83.54 538.31 150.6 605.37 83.54 672.44 150.6 739.51 83.54 805.98 150.01"/>
  <polyline class="cls-1" points="1.77 170.6 68.84 103.54 135.9 170.6 202.97 103.54 270.04 170.6 337.1 103.54 404.17 170.6 471.24 103.54 538.31 170.6 605.37 103.54 672.44 170.6 739.51 103.54 805.98 170.01"/>
  <polyline class="cls-1" points="1.77 190.6 68.84 123.54 135.9 190.6 202.97 123.54 270.04 190.6 337.1 123.54 404.17 190.6 471.24 123.54 538.31 190.6 605.37 123.54 672.44 190.6 739.51 123.54 805.98 190.01"/>
  <polyline class="cls-1" points="1.77 210.6 68.84 143.54 135.9 210.6 202.97 143.54 270.04 210.6 337.1 143.54 404.17 210.6 471.24 143.54 538.31 210.6 605.37 143.54 672.44 210.6 739.51 143.54 805.98 210.01"/>
</svg>